<svg width="24" height="24" viewBox="0 0 24 24" fill="currentColor"
    xmlns="http://www.w3.org/2000/svg">
    <path fill-rule="evenodd" clip-rule="evenodd"
        d="M0 5.86249C0 2.62473 2.62473 0 5.86249 0H22.5C23.3284 0 24 0.671573 24 1.5V1.5C24 2.32843 23.3284 3 22.5 3H19.8167C15.6776 3 14.0523 8.36818 17.4962 10.6641L21.49 13.3267C23.0581 14.3721 24 16.132 24 18.0167V18.1375C24 21.3753 21.3753 24 18.1375 24H1.5C0.671573 24 0 23.3284 0 22.5V22.5C0 21.6716 0.671573 21 1.5 21H4.18335C8.32238 21 9.94773 15.6318 6.50385 13.3359L2.51001 10.6733C0.941893 9.62793 0 7.86798 0 5.98335V5.86249Z"
        fill="currentColor" />
</svg>