<svg width="1100" height="1100" viewBox="0 0 1100 1100" fill="none" xmlns="http://www.w3.org/2000/svg">
<rect width="1100" height="1100" rx="256" fill="#0C0A09"/>
<path fill-rule="evenodd" clip-rule="evenodd" d="M256 384C256 313.308 313.308 256 384 256H807.25C827.546 256 844 272.454 844 292.75C844 313.046 827.546 329.5 807.25 329.5H741.508C640.102 329.5 600.281 461.02 684.656 517.271L787.002 585.501C822.611 609.241 844 649.206 844 692.004V716C844 786.692 786.692 844 716 844H292.75C272.454 844 256 827.546 256 807.25C256 786.954 272.454 770.5 292.75 770.5H358.492C459.898 770.5 499.719 638.98 415.344 582.729L312.998 514.499C277.389 490.759 256 450.794 256 407.996V384Z" fill="white"/>
</svg>
